<svg id="Layer_1" data-name="Layer 1" xmlns="http://www.w3.org/2000/svg" viewBox="0 0 65 39.4"><defs><style>.cls-1{fill:none;stroke:#228fe0;stroke-miterlimit:10;}.cls-2{fill:#2fabf7;}.cls-3{fill:#228fe0;}.cls-4{fill:#0571c1;}</style></defs><title>american-express</title><rect class="cls-1" x="0.5" y="0.5" width="64" height="38.4" rx="7.94"/><polygon class="cls-2" points="11.79 15.29 13.53 15.29 12.66 13.07 11.79 15.29"/><path class="cls-3" d="M101,93.69a1.51,1.51,0,0,0-.63-.08H98.73v1.27h1.59a1.51,1.51,0,0,0,.63-.08.62.62,0,0,0,.24-.55A.44.44,0,0,0,101,93.69Z" transform="translate(-67.5 -80.3)"/><path class="cls-4" d="M117.94,91.31v1l-.48-1h-3.73v1l-.48-1h-5.08a4.81,4.81,0,0,0-2.22.48v-.48h-3.57v.48a2.28,2.28,0,0,0-1.51-.48H88.1l-.88,2-.87-2h-4v1l-.47-1H78.41L76.83,95,75,99.17h4l.47-1.27h1.11l.48,1.27h4.6v-1l.4,1h2.3l.4-1v1h11V97.1H100c.16,0,.16,0,.16.24v1.75h5.71v-.48a4.74,4.74,0,0,0,2.15.48h2.38l.47-1.27H112l.48,1.27h4.6V97.9l.72,1.19h3.73V91.31ZM91.11,98H89.76V93.61L87.86,98H86.67l-1.91-4.37V98h-2.7l-.55-1.19h-2.7l-.48,1.27h-1.5l2.38-5.64h2l2.22,5.32V92.42h2.15l1.74,3.81,1.59-3.81h2.22Zm5.4-4.37h-3.1v1h3v1.11h-3v1.12h3.1v1.19H92.06V92.42h4.45Zm5.95,2.3a2,2,0,0,1,.24,1v1.12h-1.35v-.72a1.87,1.87,0,0,0-.24-1.11c-.24-.24-.48-.24-1-.24H98.73v2.07H97.38V92.42h3a3,3,0,0,1,1.58.24,1.35,1.35,0,0,1,.64,1.27,1.6,1.6,0,0,1-1,1.51A1.52,1.52,0,0,1,102.46,95.91ZM104.84,98h-1.35V92.34h1.35Zm15.64,0h-1.91L116,93.77V98h-2.7l-.47-1.19h-2.78l-.48,1.27h-1.5a2.39,2.39,0,0,1-2.62-2.78,3.2,3.2,0,0,1,.71-2.22,2.49,2.49,0,0,1,2-.64h1.27v1.19h-1.27a1.46,1.46,0,0,0-1,.32,1.85,1.85,0,0,0-.39,1.27,1.77,1.77,0,0,0,.39,1.35,1.28,1.28,0,0,0,1,.32h.55l1.83-4.37h2l2.22,5.32V92.5h2l2.3,3.89V92.5h1.35V98Z" transform="translate(-67.5 -80.3)"/><polygon class="cls-3" points="43.06 15.29 44.88 15.29 44.01 13.07 43.06 15.29"/><polygon class="cls-3" points="29.56 26.72 29.56 22.2 27.5 24.42 29.56 26.72"/><polygon class="cls-2" points="21.07 22.76 21.07 23.79 24.01 23.79 24.01 24.9 21.07 24.9 21.07 26.09 24.32 26.09 25.83 24.42 24.41 22.76 21.07 22.76"/><path id="SVGCleanerId_0" data-name="SVGCleanerId 0" class="cls-3" d="M100.08,103.06H98.41v1.42h1.75c.47,0,.79-.23.79-.71A.79.79,0,0,0,100.08,103.06Z" transform="translate(-67.5 -80.3)"/><path class="cls-4" d="M124.6,104.4v-3.57h-3.33a2.61,2.61,0,0,0-1.67.48v-.48H116a2.48,2.48,0,0,0-1.58.48v-.48h-6.43v.48a3.06,3.06,0,0,0-1.75-.48H101.9v.48a3,3,0,0,0-1.82-.48H95.32L94.21,102l-1-1.19H86v7.78h7l1.11-1.19,1,1.19h4.28v-1.82H100a4.82,4.82,0,0,0,1.83-.24v2.14h3.57v-2.06h.16c.23,0,.23,0,.23.24v1.82h10.8a3.07,3.07,0,0,0,1.82-.48v.48h3.42a3.54,3.54,0,0,0,1.9-.4h0a2.7,2.7,0,0,0,1.27-2.38A3.05,3.05,0,0,0,124.6,104.4ZM100,105.67H98.41v1.91H95.87l-1.58-1.83-1.67,1.83H87.38v-5.64H92.7l1.59,1.83L96,101.94h4.21c1,0,2.22.32,2.22,1.83S101.19,105.67,100,105.67Zm7.94-.31a1.79,1.79,0,0,1,.23,1v1.11h-1.34v-.71a1.79,1.79,0,0,0-.24-1.12c-.16-.23-.48-.23-1-.23h-1.42v2.06h-1.35v-5.63h3a3.3,3.3,0,0,1,1.59.23,1.4,1.4,0,0,1,.71,1.27,1.57,1.57,0,0,1-1,1.51A1.37,1.37,0,0,1,107.94,105.36Zm5.47-2.3h-3.09v1h3v1.11h-3v1.11h3.09v1.19H109v-5.63h4.44Zm3.34,4.44h-2.54v-1.19h2.54a.66.66,0,0,0,.55-.16.57.57,0,0,0,0-.79.67.67,0,0,0-.47-.16c-1.27-.08-2.78,0-2.78-1.75,0-.79.47-1.66,1.9-1.66h2.62v1.34h-2.46a1.12,1.12,0,0,0-.55.08c-.16.08-.16.24-.16.4s.16.32.31.4a1,1,0,0,0,.48.08h.71a2,2,0,0,1,1.51.47,1.65,1.65,0,0,1,.4,1.19C118.81,106.94,118.1,107.5,116.75,107.5Zm6.82-.56a2.31,2.31,0,0,1-1.67.56h-2.53v-1.19h2.53a.67.67,0,0,0,.56-.16.57.57,0,0,0,0-.79.68.68,0,0,0-.48-.16c-1.27-.08-2.77,0-2.77-1.75,0-.79.47-1.66,1.9-1.66h2.62v1.34h-2.38a1.19,1.19,0,0,0-.56.08c-.16.08-.16.24-.16.4s.08.32.32.4a1,1,0,0,0,.48.08h.71a2.05,2.05,0,0,1,1.51.47.08.08,0,0,1,.08.08,1.83,1.83,0,0,1,.32,1.11A1.59,1.59,0,0,1,123.57,106.94Z" transform="translate(-67.5 -80.3)"/><path id="SVGCleanerId_1" data-name="SVGCleanerId 1" class="cls-3" d="M106.51,103.21a1.56,1.56,0,0,0-.64-.08h-1.58v1.27h1.58a1.77,1.77,0,0,0,.64-.07.62.62,0,0,0,.24-.56A.44.44,0,0,0,106.51,103.21Z" transform="translate(-67.5 -80.3)"/><path class="cls-3" d="M101,93.69a1.51,1.51,0,0,0-.63-.08H98.73v1.27h1.59a1.51,1.51,0,0,0,.63-.08.62.62,0,0,0,.24-.55A.44.44,0,0,0,101,93.69Z" transform="translate(-67.5 -80.3)"/><polygon class="cls-3" points="43.06 15.29 44.88 15.29 44.01 13.07 43.06 15.29"/><polygon class="cls-3" points="29.56 26.72 29.56 22.2 27.5 24.42 29.56 26.72"/><path id="SVGCleanerId_0-2" data-name="SVGCleanerId 0" class="cls-3" d="M100.08,103.06H98.41v1.42h1.75c.47,0,.79-.23.79-.71A.79.79,0,0,0,100.08,103.06Z" transform="translate(-67.5 -80.3)"/><path id="SVGCleanerId_1-2" data-name="SVGCleanerId 1" class="cls-3" d="M106.51,103.21a1.56,1.56,0,0,0-.64-.08h-1.58v1.27h1.58a1.77,1.77,0,0,0,.64-.07.62.62,0,0,0,.24-.56A.44.44,0,0,0,106.51,103.21Z" transform="translate(-67.5 -80.3)"/><polygon class="cls-2" points="32.02 27.04 30.91 25.85 30.91 27.2 28.29 27.2 26.71 25.38 24.96 27.2 19.72 27.2 19.72 21.64 25.04 21.64 26.71 23.47 27.5 22.52 25.52 20.53 18.53 20.53 18.53 28.31 25.52 28.31 26.71 27.12 27.74 28.31 32.02 28.31 32.02 27.04"/><polygon class="cls-2" points="23.77 18.79 22.74 17.68 22.26 17.68 22.26 17.2 21.07 16.01 20.28 17.68 19.17 17.68 17.26 13.31 17.26 17.68 14.56 17.68 14.01 16.49 11.31 16.49 10.75 17.68 9.32 17.68 11.71 12.12 13.69 12.12 15.91 17.44 15.91 12.12 17.1 12.12 15.99 11.01 14.8 11.01 14.8 11.96 14.4 11.01 10.91 11.01 9.32 14.74 7.5 18.79 9.32 18.79 11.63 18.79 12.1 17.6 13.21 17.6 13.77 18.79 18.21 18.79 18.21 17.84 18.61 18.79 20.91 18.79 21.31 17.84 21.31 18.79 23.77 18.79"/><polygon class="cls-2" points="20.12 15.14 18.85 13.87 19.8 15.93 20.12 15.14"/><path class="cls-3" d="M123.73,108.21a2.91,2.91,0,0,0,1.27-2.14L123.89,105a2.36,2.36,0,0,1,.16.79,1.59,1.59,0,0,1-.48,1.19,2.31,2.31,0,0,1-1.67.56h-2.53v-1.19h2.53a.67.67,0,0,0,.56-.16.57.57,0,0,0,0-.79.68.68,0,0,0-.48-.16c-1.27-.08-2.77,0-2.77-1.75a1.65,1.65,0,0,1,1.66-1.66l-.87-.88c-.16.08-.24.16-.32.16v-.47H116a2.52,2.52,0,0,0-1.59.47v-.47h-6.5v.47a3,3,0,0,0-1.75-.47H101.9v.47a3,3,0,0,0-1.82-.47H95.32l-1.11,1.19-1-1.19H92.3L94.68,103l1.19-1.27h4.21c1,0,2.22.31,2.22,1.82s-1.11,1.91-2.3,1.91H98.41v1.19l1.19,1.19v-1.19h.4a4.82,4.82,0,0,0,1.83-.24v2.14h3.57v-2.06h.16c.23,0,.23,0,.23.24v1.82h10.8a3.14,3.14,0,0,0,1.82-.47v.47h3.42a3.12,3.12,0,0,0,1.9-.32Zm-15.79-2.85a1.79,1.79,0,0,1,.23,1v1.11h-1.34v-.71a1.79,1.79,0,0,0-.24-1.12c-.16-.23-.48-.23-1-.23h-1.42v2.06h-1.35v-5.63h3a3.3,3.3,0,0,1,1.59.23,1.4,1.4,0,0,1,.71,1.27,1.57,1.57,0,0,1-1,1.51A1.37,1.37,0,0,1,107.94,105.36Zm5.47-2.3h-3.09v1h3v1.11h-3v1.11h3.09v1.19H109v-5.63h4.44Zm3.34,4.44h-2.54v-1.19h2.54a.66.66,0,0,0,.55-.16.57.57,0,0,0,0-.79.67.67,0,0,0-.47-.16c-1.27-.08-2.78,0-2.78-1.75,0-.79.47-1.66,1.9-1.66h2.62v1.34h-2.46a1.12,1.12,0,0,0-.55.08c-.16.08-.16.24-.16.4s.16.32.31.4a1,1,0,0,0,.48.08h.71a2,2,0,0,1,1.51.47,1.65,1.65,0,0,1,.4,1.19C118.81,106.94,118.1,107.5,116.75,107.5Z" transform="translate(-67.5 -80.3)"/><path class="cls-3" d="M120.56,103.61c0,.24.07.32.31.4a1,1,0,0,0,.48.08h.71a2.25,2.25,0,0,1,1.11.24l-1.19-1.2h-.71a1.19,1.19,0,0,0-.56.08A.61.61,0,0,0,120.56,103.61Z" transform="translate(-67.5 -80.3)"/><polygon class="cls-3" points="50.28 18.55 50.44 18.79 50.52 18.79 50.28 18.55"/><polygon class="cls-3" points="45.91 14.18 47.26 17.44 47.26 15.53 45.91 14.18"/><path class="cls-3" d="M99.84,97.1H100c.16,0,.16,0,.16.24v1.75h5.71v-.48a4.74,4.74,0,0,0,2.15.48h2.38l.47-1.27H112l.48,1.27h4.6v-.8L116,97.18v.88h-2.7l-.39-1.27h-2.78l-.48,1.27h-1.5a2.39,2.39,0,0,1-2.62-2.78,3.2,3.2,0,0,1,.71-2.22,2.49,2.49,0,0,1,2-.64h1.27v1.19h-1.27a1.46,1.46,0,0,0-1,.32,1.85,1.85,0,0,0-.39,1.27,1.77,1.77,0,0,0,.39,1.35,1.28,1.28,0,0,0,1,.32h.55l1.83-4.37h.79l-1.11-1.11H108.1a4.83,4.83,0,0,0-2.23.48v-.48h-3.49v.48a2.28,2.28,0,0,0-1.51-.48H88.1l-.88,2-.87-2H82.86L84,92.5h1.59l1.34,2.94.48.47,1.43-3.49H91v5.64H89.68V93.69l-1.35,3.18,2.3,2.3h9.13Zm3.65-4.68h1.35v5.64h-1.35Zm-7,1.19h-3.1v1h3v1.11h-3v1.12h3.1v1.19H92.06V92.42h4.45ZM98.73,98H97.38V92.34h3a3,3,0,0,1,1.58.24,1.35,1.35,0,0,1,.64,1.27,1.6,1.6,0,0,1-1,1.51,1,1,0,0,1,.63.47,2,2,0,0,1,.24,1V98h-1.35v-.72a1.87,1.87,0,0,0-.24-1.11c-.08-.16-.32-.16-.79-.16H98.73v2Z" transform="translate(-67.5 -80.3)"/></svg>