<svg id="Layer_1" data-name="Layer 1" xmlns="http://www.w3.org/2000/svg" viewBox="0 0 65 39.4"><defs><style>.cls-1{fill:none;stroke:#ff8500;stroke-miterlimit:10;}.cls-2{fill:#ffb600;}.cls-3{fill:#f7981d;}.cls-4{fill:#ff8500;}.cls-5{fill:#ff5050;}.cls-6{fill:#e52836;}.cls-7{fill:#cb2026;}.cls-8{fill:#fff;}.cls-9{fill:#dce5e5;}</style></defs><title>master-card</title><rect class="cls-1" x="0.5" y="0.5" width="64" height="38.4" rx="7.94"/><path class="cls-2" d="M118.33,100a11,11,0,0,1-22,0h0a11,11,0,1,1,22,0Z" transform="translate(-67.5 -80.3)"/><path class="cls-3" d="M107.33,89a11,11,0,0,1,11,11h0a11,11,0,0,1-22,0" transform="translate(-67.5 -80.3)"/><path class="cls-4" d="M107.33,89a11,11,0,0,1,11,11h0a11,11,0,0,1-11,11" transform="translate(-67.5 -80.3)"/><path class="cls-5" d="M92.55,89a11,11,0,0,0,.12,22,11.16,11.16,0,0,0,7.39-2.85h0a10.15,10.15,0,0,0,1.1-1.17H98.89a12.88,12.88,0,0,1-.81-1.1H102a8.17,8.17,0,0,0,.64-1.17H97.44a6.39,6.39,0,0,1-.47-1.16H103a11.55,11.55,0,0,0,.58-3.49,15.86,15.86,0,0,0-.23-2.33H96.62a7.91,7.91,0,0,1,.3-1.16h6a6.8,6.8,0,0,0-.47-1.17H97.38c.18-.41.41-.75.64-1.16h3.9a5.39,5.39,0,0,0-.87-1.17H98.89A10.48,10.48,0,0,1,100,92a10.71,10.71,0,0,0-7.39-2.85C92.61,89,92.61,89,92.55,89Z" transform="translate(-67.5 -80.3)"/><path class="cls-6" d="M81.67,100a11,11,0,0,0,11,11,11.16,11.16,0,0,0,7.39-2.85h0a10.15,10.15,0,0,0,1.1-1.17H98.89a12.88,12.88,0,0,1-.81-1.1H102a8.17,8.17,0,0,0,.64-1.17H97.44a6.39,6.39,0,0,1-.47-1.16H103a11.55,11.55,0,0,0,.58-3.49,15.86,15.86,0,0,0-.23-2.33H96.62a7.91,7.91,0,0,1,.3-1.16h6a6.8,6.8,0,0,0-.47-1.17H97.38c.18-.41.41-.75.64-1.16h3.9a5.39,5.39,0,0,0-.87-1.17H98.89A10.48,10.48,0,0,1,100,92a10.71,10.71,0,0,0-7.39-2.85h-.06" transform="translate(-67.5 -80.3)"/><path class="cls-7" d="M92.67,111a11.16,11.16,0,0,0,7.39-2.85h0a10.15,10.15,0,0,0,1.1-1.17H98.89a12.88,12.88,0,0,1-.81-1.1H102a8.17,8.17,0,0,0,.64-1.17H97.44a6.39,6.39,0,0,1-.47-1.16H103a11.55,11.55,0,0,0,.58-3.49,15.86,15.86,0,0,0-.23-2.33H96.62a7.91,7.91,0,0,1,.3-1.16h6a6.8,6.8,0,0,0-.47-1.17H97.38c.18-.41.41-.75.64-1.16h3.9a5.39,5.39,0,0,0-.87-1.17H98.89A10.48,10.48,0,0,1,100,92a10.71,10.71,0,0,0-7.39-2.85h-.06" transform="translate(-67.5 -80.3)"/><path class="cls-8" d="M96.57,102.79l.17-1a2.35,2.35,0,0,1-.29.06c-.41,0-.47-.23-.41-.35l.35-2H97l.18-1.11h-.59l.12-.7H95.58s-.7,3.84-.7,4.31a.87.87,0,0,0,.93,1A1.77,1.77,0,0,0,96.57,102.79Z" transform="translate(-67.5 -80.3)"/><path class="cls-8" d="M97,100.93a1.86,1.86,0,0,0,2,2,2.94,2.94,0,0,0,1.22-.18l.24-1.1a3.51,3.51,0,0,1-1.23.29c-1.28,0-1-.93-1-.93h2.38a7.42,7.42,0,0,0,.18-1,1.58,1.58,0,0,0-1.69-1.69C97.85,98.2,97,99.48,97,100.93Zm2-1.69c.64,0,.52.76.52.82H98.25C98.25,100,98.37,99.24,99,99.24Z" transform="translate(-67.5 -80.3)"/><path class="cls-8" d="M106.4,102.79l.23-1.28a2.85,2.85,0,0,1-1,.29,1.18,1.18,0,0,1-1.17-1.33c0-1.4.7-2.16,1.51-2.16a1.92,1.92,0,0,1,1.05.35l.18-1.22a4.12,4.12,0,0,0-1.34-.29c-1.34,0-2.68,1.16-2.68,3.37,0,1.46.7,2.45,2.1,2.45A5.07,5.07,0,0,0,106.4,102.79Z" transform="translate(-67.5 -80.3)"/><path class="cls-8" d="M90.16,98.2a4.13,4.13,0,0,0-1.39.23l-.18,1a3.52,3.52,0,0,1,1.28-.23c.41,0,.76,0,.76.4s-.06.29-.06.29h-.52c-1,0-2.1.41-2.1,1.75,0,1.05.7,1.28,1.11,1.28a1.76,1.76,0,0,0,1.22-.52l-.06.46h1l.47-3.2A1.38,1.38,0,0,0,90.16,98.2Zm.24,2.61c0,.18-.12,1.11-.82,1.11a.45.45,0,0,1-.46-.46c0-.3.17-.7,1-.7A1.11,1.11,0,0,0,90.4,100.81Z" transform="translate(-67.5 -80.3)"/><path class="cls-8" d="M92.84,102.91a1.49,1.49,0,0,0,1.75-1.51c0-1.46-1.4-1.17-1.4-1.75,0-.29.23-.41.64-.41.18,0,.82.06.82.06l.17-1a4.71,4.71,0,0,0-1.11-.11c-.87,0-1.74.35-1.74,1.51,0,1.34,1.45,1.22,1.45,1.75,0,.35-.4.4-.7.4a3.84,3.84,0,0,1-1-.17l-.18,1.05C91.56,102.79,91.85,102.91,92.84,102.91Z" transform="translate(-67.5 -80.3)"/><path class="cls-8" d="M116.06,97.26l-.23,1.58a1.6,1.6,0,0,0-1.11-.59c-1,0-2,1.28-2,2.8,0,.93.46,1.92,1.45,1.92a1.56,1.56,0,0,0,1.11-.47l-.06.41h1.16l.88-5.59Zm-.52,3.09c0,.64-.29,1.45-.93,1.45-.41,0-.64-.34-.64-.93,0-.93.41-1.51.93-1.51S115.54,99.65,115.54,100.35Z" transform="translate(-67.5 -80.3)"/><path class="cls-8" d="M83.82,102.85l.7-4.19.11,4.19h.82L87,98.66l-.64,4.19h1.22l.94-5.59H86.56l-1.17,3.44-.06-3.44H83.65l-.94,5.59Z" transform="translate(-67.5 -80.3)"/><path class="cls-8" d="M101.86,102.85c.35-1.92.41-3.49,1.22-3.2a4.84,4.84,0,0,1,.41-1.34h-.23c-.52,0-.93.7-.93.7l.11-.64h-1.1l-.76,4.54h1.28Z" transform="translate(-67.5 -80.3)"/><path class="cls-8" d="M109.08,98.2a4.16,4.16,0,0,0-1.4.23l-.17,1a3.45,3.45,0,0,1,1.28-.23c.41,0,.75,0,.75.4s-.05.29-.05.29H109c-1,0-2.09.41-2.09,1.75,0,1.05.7,1.28,1.1,1.28a1.77,1.77,0,0,0,1.23-.52l-.06.46h1l.46-3.2A1.35,1.35,0,0,0,109.08,98.2Zm.29,2.61c0,.18-.12,1.11-.81,1.11a.46.46,0,0,1-.47-.46c0-.3.17-.7,1-.7A.63.63,0,0,0,109.37,100.81Z" transform="translate(-67.5 -80.3)"/><path class="cls-8" d="M111.64,102.85c.35-1.92.41-3.49,1.22-3.2a4.51,4.51,0,0,1,.41-1.34H113c-.53,0-.93.7-.93.7l.11-.64h-1.1l-.76,4.54h1.28Z" transform="translate(-67.5 -80.3)"/><path class="cls-9" d="M94.76,102a.87.87,0,0,0,.93,1,2.21,2.21,0,0,0,.88-.18l.17-1a2.35,2.35,0,0,1-.29.06c-.41,0-.47-.23-.41-.35l.35-2H97l.18-1.11h-.59l.12-.7" transform="translate(-67.5 -80.3)"/><path class="cls-9" d="M97.56,100.93c0,1.63.52,2,1.45,2a2.94,2.94,0,0,0,1.22-.18l.24-1.1a3.51,3.51,0,0,1-1.23.29c-1.28,0-1-.93-1-.93h2.38a7.42,7.42,0,0,0,.18-1,1.58,1.58,0,0,0-1.69-1.69C97.85,98.2,97.56,99.48,97.56,100.93ZM99,99.24c.64,0,.76.76.76.82H98.25C98.25,100,98.37,99.24,99,99.24Z" transform="translate(-67.5 -80.3)"/><path class="cls-9" d="M106.4,102.79l.23-1.28a2.85,2.85,0,0,1-1,.29,1.18,1.18,0,0,1-1.17-1.33c0-1.4.7-2.16,1.51-2.16a1.92,1.92,0,0,1,1.05.35l.18-1.22a4.12,4.12,0,0,0-1.34-.29c-1.34,0-2.1,1.16-2.1,3.37,0,1.46.12,2.45,1.52,2.45A5.07,5.07,0,0,0,106.4,102.79Z" transform="translate(-67.5 -80.3)"/><path class="cls-9" d="M88.59,99.48a3.39,3.39,0,0,1,1.28-.24c.41,0,.76.06.76.41s-.06.29-.06.29h-.52c-1,0-2.1.41-2.1,1.75,0,1,.7,1.28,1.11,1.28a1.75,1.75,0,0,0,1.22-.53l-.06.47h1l.47-3.2c0-1.34-1.17-1.4-1.63-1.4m.87,2.5a1.9,1.9,0,0,1-1.4,1.11.45.45,0,0,1-.46-.46c0-.3.17-.7,1-.7A5.62,5.62,0,0,0,91,100.81Z" transform="translate(-67.5 -80.3)"/><path class="cls-9" d="M91.56,102.79a4.8,4.8,0,0,0,1.34.12,1.49,1.49,0,0,0,1.75-1.51c0-1.46-1.4-1.17-1.4-1.75,0-.29.23-.41.64-.41.17,0,.81.06.81.06l.18-1a4.71,4.71,0,0,0-1.11-.11c-.87,0-1.16.35-1.16,1.51,0,1.34.87,1.22.87,1.75,0,.35-.41.4-.7.4" transform="translate(-67.5 -80.3)"/><path class="cls-9" d="M115.83,98.84a1.6,1.6,0,0,0-1.11-.59c-1,0-1.39,1.28-1.39,2.8,0,.93-.12,1.92.87,1.92a1.56,1.56,0,0,0,1.11-.47l-.06.41h1.16l.88-5.59m-1.52,3c0,.64-.52,1.45-1.16,1.45-.41,0-.64-.34-.64-.93,0-.93.41-1.51.93-1.51A.89.89,0,0,1,115.77,100.35Z" transform="translate(-67.5 -80.3)"/><path class="cls-9" d="M83.82,102.85l.7-4.19.11,4.19h.82L87,98.66l-.64,4.19h1.22l.94-5.59H87l-1.63,3.44-.06-3.44h-.64l-2,5.59Z" transform="translate(-67.5 -80.3)"/><path class="cls-9" d="M100.64,102.85h1.22c.35-1.92.41-3.49,1.22-3.2a4.84,4.84,0,0,1,.41-1.34h-.23c-.52,0-.93.7-.93.7l.11-.64" transform="translate(-67.5 -80.3)"/><path class="cls-9" d="M107.51,99.48a3.33,3.33,0,0,1,1.28-.24c.41,0,.75.06.75.41s-.05.29-.05.29H109c-1,0-2.09.41-2.09,1.75,0,1,.7,1.28,1.1,1.28a1.76,1.76,0,0,0,1.23-.53l-.06.47h1l.46-3.2c0-1.34-1.16-1.4-1.63-1.4m.87,2.5a1.88,1.88,0,0,1-1.39,1.11.46.46,0,0,1-.47-.46c0-.3.18-.7,1-.7A5.87,5.87,0,0,0,109.89,100.81Z" transform="translate(-67.5 -80.3)"/><path class="cls-9" d="M110.42,102.85h1.22c.35-1.92.41-3.49,1.22-3.2a4.51,4.51,0,0,1,.41-1.34H113c-.53,0-.93.7-.93.7l.11-.64" transform="translate(-67.5 -80.3)"/></svg>