<svg id="Layer_1" data-name="Layer 1" xmlns="http://www.w3.org/2000/svg" viewBox="0 0 65 39.4"><defs><style>.cls-1{fill:none;stroke:#139ad6;stroke-miterlimit:10;}.cls-2{fill:#139ad6;}.cls-3{fill:#263b80;}.cls-4{fill:#232c65;}</style></defs><title>pay-pal</title><rect class="cls-1" x="0.5" y="0.5" width="64" height="38.4" rx="7.94"/><path class="cls-2" d="M114.74,96.7h-2.91a.58.58,0,0,0-.43.34l-1.2,7.55c0,.17.09.25.26.25H112c.17,0,.26-.08.26-.25l.34-2.15a.39.39,0,0,1,.43-.34H114a3,3,0,0,0,3.34-2.83,2.21,2.21,0,0,0-.34-1.88,3.43,3.43,0,0,0-2.23-.69m.35,2.83c-.18,1-1,1-1.72,1h-.51l.34-2c0-.09.09-.18.26-.18h.17c.51,0,1,0,1.28.35.18.08.18.34.18.77" transform="translate(-67.5 -80.3)"/><path class="cls-3" d="M93.74,96.7H90.83a.58.58,0,0,0-.43.34l-1.2,7.55c0,.17.09.25.26.25h1.37a.58.58,0,0,0,.43-.34l.34-2.06a.39.39,0,0,1,.43-.34H93a3,3,0,0,0,3.34-2.83A2.21,2.21,0,0,0,96,97.39a3.28,3.28,0,0,0-2.23-.69m.35,2.83c-.18,1-1,1-1.72,1h-.43l.35-2c0-.09.08-.18.25-.18h.17c.52,0,1,0,1.29.35.09.08.17.34.09.77" transform="translate(-67.5 -80.3)"/><path class="cls-3" d="M102.57,99.44H101.2c-.09,0-.26.09-.26.17l-.08.43-.09-.17a2,2,0,0,0-1.63-.6A3.3,3.3,0,0,0,96,102.1a2.54,2.54,0,0,0,.52,2.14,2.13,2.13,0,0,0,1.8.69,2.75,2.75,0,0,0,2-.77l-.09.43c0,.17.09.25.26.25h1.28a.55.55,0,0,0,.43-.34l.77-4.8c-.08-.09-.25-.26-.34-.26m-2,2.75A1.66,1.66,0,0,1,99,103.56a1.32,1.32,0,0,1-.94-.35,1.81,1.81,0,0,1-.26-1,1.57,1.57,0,0,1,1.54-1.38,1.6,1.6,0,0,1,1,.35,1.51,1.51,0,0,1,.34,1" transform="translate(-67.5 -80.3)"/><path class="cls-2" d="M123.49,99.44h-1.38c-.08,0-.25.09-.25.17l-.09.43-.08-.17a2,2,0,0,0-1.63-.6,3.28,3.28,0,0,0-3.17,2.83,2.51,2.51,0,0,0,.51,2.14,2.15,2.15,0,0,0,1.8.69,2.72,2.72,0,0,0,2-.77l-.08.43a.22.22,0,0,0,.25.25h1.29a.58.58,0,0,0,.43-.34l.77-4.8c-.09-.09-.17-.26-.34-.26m-2,2.75a1.65,1.65,0,0,1-1.62,1.37,1.35,1.35,0,0,1-1-.35,1.81,1.81,0,0,1-.25-1,1.52,1.52,0,0,1,2.48-1,1,1,0,0,1,.34,1" transform="translate(-67.5 -80.3)"/><path class="cls-3" d="M110,99.44h-1.46a.45.45,0,0,0-.34.17l-1.89,2.92-.85-2.74a.4.4,0,0,0-.43-.26h-1.37c-.18,0-.26.17-.26.34l1.54,4.54-1.46,2.06c-.08.17,0,.43.18.43h1.37a.47.47,0,0,0,.34-.17l4.71-6.77c.26-.26.09-.52-.08-.52" transform="translate(-67.5 -80.3)"/><path class="cls-2" d="M125.11,97l-1.2,7.71a.23.23,0,0,0,.26.26h1.2a.58.58,0,0,0,.43-.34L127,97c0-.17-.09-.25-.26-.25h-1.37c-.08-.09-.17,0-.26.17" transform="translate(-67.5 -80.3)"/><path class="cls-3" d="M82.86,94.13a4.23,4.23,0,0,0-3.26-1H75.31a.76.76,0,0,0-.6.51L73,104.84a.39.39,0,0,0,.34.43H76l.69-4.2v.17a.73.73,0,0,1,.6-.51h1.28c2.49,0,4.37-1,5-3.86v-.26h0a3,3,0,0,0-.68-2.48" transform="translate(-67.5 -80.3)"/><path class="cls-2" d="M83.46,96.61h0v.26c-.6,2.92-2.49,3.86-5,3.86H77.2a.74.74,0,0,0-.6.51l-.86,5.23a.32.32,0,0,0,.35.34h2.22a.48.48,0,0,0,.52-.42v-.09l.43-2.66v-.17a.47.47,0,0,1,.51-.43h.34c2.15,0,3.86-.85,4.29-3.43A3.14,3.14,0,0,0,84,97a.89.89,0,0,0-.51-.43" transform="translate(-67.5 -80.3)"/><path class="cls-4" d="M82.86,96.36c-.09,0-.17-.09-.26-.09a.34.34,0,0,1-.26-.08,4.27,4.27,0,0,0-1.11-.09H77.89a.3.3,0,0,0-.26.09.46.46,0,0,0-.26.42l-.68,4.46v.17a.73.73,0,0,1,.6-.51h1.28c2.49,0,4.37-1,5-3.86a.32.32,0,0,1,.09-.26c-.17-.08-.26-.17-.43-.17s-.26-.08-.34-.08" transform="translate(-67.5 -80.3)"/></svg>