<svg id="Layer_1" data-name="Layer 1" xmlns="http://www.w3.org/2000/svg" viewBox="0 0 65 39.4"><defs><style>.cls-1{fill:none;stroke:#293688;stroke-miterlimit:10;}.cls-2{fill:#3c58bf;}.cls-3{fill:#293688;}.cls-4{fill:#ffbc00;}.cls-5{fill:#f7981d;}.cls-6{fill:#ed7c00;}.cls-7{fill:#051244;}</style></defs><title>visa</title><rect class="cls-1" x="0.5" y="0.5" width="64" height="38.4" rx="7.94"/><polygon class="cls-2" points="25.2 27.56 27.98 11.93 32.33 11.93 29.63 27.56 25.2 27.56"/><polygon class="cls-3" points="25.2 27.56 28.77 11.93 32.33 11.93 29.63 27.56 25.2 27.56"/><path class="cls-2" d="M112.85,92.4a10.94,10.94,0,0,0-4-.69c-4.34,0-7.47,2.17-7.47,5.29,0,2.35,2.17,3.56,3.91,4.35s2.26,1.3,2.26,2c0,1-1.39,1.57-2.61,1.57a9.42,9.42,0,0,1-4.17-.87l-.61-.26-.6,3.56a14.15,14.15,0,0,0,5,.87c4.6,0,7.64-2.17,7.64-5.47,0-1.83-1.13-3.22-3.74-4.35-1.56-.78-2.51-1.21-2.51-2s.78-1.39,2.51-1.39a8.09,8.09,0,0,1,3.3.6l.44.18.69-3.39Z" transform="translate(-67.5 -80.3)"/><path class="cls-3" d="M112.85,92.4a10.94,10.94,0,0,0-4-.69c-4.34,0-6.69,2.17-6.69,5.29,0,2.35,1.39,3.56,3.13,4.35s2.26,1.3,2.26,2c0,1-1.39,1.57-2.61,1.57a9.42,9.42,0,0,1-4.17-.87l-.61-.26-.6,3.56a14.15,14.15,0,0,0,5,.87c4.6,0,7.64-2.17,7.64-5.47,0-1.83-1.13-3.22-3.74-4.35-1.56-.78-2.51-1.21-2.51-2s.78-1.39,2.51-1.39a8.09,8.09,0,0,1,3.3.6l.44.18.69-3.39Z" transform="translate(-67.5 -80.3)"/><path class="cls-2" d="M120.32,92.23c-1,0-1.82.08-2.26,1.13l-6.51,14.5h4.69l.87-2.61h5.56l.52,2.61h4.17l-3.65-15.63Zm-2,10.42c.27-.78,1.74-4.6,1.74-4.6s.35-1,.61-1.57l.26,1.48s.87,3.91,1,4.78h-3.65Z" transform="translate(-67.5 -80.3)"/><path class="cls-3" d="M121.36,92.23c-1,0-1.82.08-2.25,1.13l-7.56,14.5h4.69l.87-2.61h5.56l.52,2.61h4.17l-3.65-15.63Zm-3,10.42c.35-.87,1.74-4.6,1.74-4.6s.35-1,.61-1.57l.26,1.48s.87,3.91,1,4.78h-3.65Z" transform="translate(-67.5 -80.3)"/><path class="cls-2" d="M84.72,103.17l-.44-2.26a12.6,12.6,0,0,0-6.08-6.86L82.11,108H86.8l7-15.64H89.14Z" transform="translate(-67.5 -80.3)"/><path class="cls-3" d="M84.72,103.17l-.44-2.26a12.6,12.6,0,0,0-6.08-6.86L82.11,108H86.8l7-15.64H90Z" transform="translate(-67.5 -80.3)"/><path class="cls-4" d="M72.64,92.23l.79.17C79,93.7,82.8,97,84.28,100.91l-1.56-7.38c-.26-1-1-1.3-2-1.3Z" transform="translate(-67.5 -80.3)"/><path class="cls-5" d="M72.64,92.23h0c5.56,1.3,10.16,4.69,11.64,8.6L82.8,94.66A2.11,2.11,0,0,0,80.72,93Z" transform="translate(-67.5 -80.3)"/><path class="cls-6" d="M72.64,92.23h0c5.56,1.3,10.16,4.69,11.64,8.6l-1-3.39a3.06,3.06,0,0,0-1.83-2.52Z" transform="translate(-67.5 -80.3)"/><path class="cls-7" d="M89.06,102.65l-3-3L84.72,103l-.35-2.17A12.58,12.58,0,0,0,78.29,94l3.91,13.9h4.69Z" transform="translate(-67.5 -80.3)"/><polygon class="cls-7" points="29.63 27.56 25.9 23.74 25.2 27.56 29.63 27.56"/><path class="cls-7" d="M107.12,102.48h0c.35.34.52.6.44,1,0,1-1.39,1.56-2.61,1.56a9.55,9.55,0,0,1-4.17-.86l-.61-.27-.6,3.57a14.18,14.18,0,0,0,5,.86c2.78,0,5-.78,6.34-2.17Z" transform="translate(-67.5 -80.3)"/><path class="cls-7" d="M112.16,107.86h4.08l.87-2.61h5.56l.52,2.61h4.17l-1.48-6.34-5.21-5,.26,1.39s.87,3.91,1,4.78h-3.65c.35-.87,1.74-4.6,1.74-4.6s.35-1,.61-1.57" transform="translate(-67.5 -80.3)"/></svg>